<svg id="visual" viewBox="0 0 900 600" width="900" height="600" xmlns="http://www.w3.org/2000/svg" xmlns:xlink="http://www.w3.org/1999/xlink" version="1.1"><rect x="0" y="0" width="900" height="600" fill="#0017ff"></rect><defs><linearGradient id="grad1_0" x1="33.3%" y1="0%" x2="100%" y2="100%"><stop offset="20%" stop-color="#d73cfa" stop-opacity="1"></stop><stop offset="80%" stop-color="#d73cfa" stop-opacity="1"></stop></linearGradient></defs><defs><linearGradient id="grad1_1" x1="33.3%" y1="0%" x2="100%" y2="100%"><stop offset="20%" stop-color="#d73cfa" stop-opacity="1"></stop><stop offset="80%" stop-color="#b027fb" stop-opacity="1"></stop></linearGradient></defs><defs><linearGradient id="grad1_2" x1="33.3%" y1="0%" x2="100%" y2="100%"><stop offset="20%" stop-color="#7c18fd" stop-opacity="1"></stop><stop offset="80%" stop-color="#b027fb" stop-opacity="1"></stop></linearGradient></defs><defs><linearGradient id="grad1_3" x1="33.3%" y1="0%" x2="100%" y2="100%"><stop offset="20%" stop-color="#7c18fd" stop-opacity="1"></stop><stop offset="80%" stop-color="#0017ff" stop-opacity="1"></stop></linearGradient></defs><defs><linearGradient id="grad2_0" x1="0%" y1="0%" x2="66.7%" y2="100%"><stop offset="20%" stop-color="#d73cfa" stop-opacity="1"></stop><stop offset="80%" stop-color="#d73cfa" stop-opacity="1"></stop></linearGradient></defs><defs><linearGradient id="grad2_1" x1="0%" y1="0%" x2="66.7%" y2="100%"><stop offset="20%" stop-color="#b027fb" stop-opacity="1"></stop><stop offset="80%" stop-color="#d73cfa" stop-opacity="1"></stop></linearGradient></defs><defs><linearGradient id="grad2_2" x1="0%" y1="0%" x2="66.7%" y2="100%"><stop offset="20%" stop-color="#b027fb" stop-opacity="1"></stop><stop offset="80%" stop-color="#7c18fd" stop-opacity="1"></stop></linearGradient></defs><defs><linearGradient id="grad2_3" x1="0%" y1="0%" x2="66.7%" y2="100%"><stop offset="20%" stop-color="#0017ff" stop-opacity="1"></stop><stop offset="80%" stop-color="#7c18fd" stop-opacity="1"></stop></linearGradient></defs><g transform="translate(900, 0)"><path d="M0 486.7C-49.7 444.5 -99.3 402.3 -158.8 383.4C-218.3 364.6 -287.7 369.1 -340.1 340.1C-392.6 311.1 -428.1 248.6 -449.7 186.3C-471.3 124 -479 62 -486.7 0L0 0Z" fill="#5816fe"></path><path d="M0 365.1C-37.2 333.4 -74.5 301.7 -119.1 287.6C-163.7 273.4 -215.8 276.8 -255.1 255.1C-294.4 233.3 -321.1 186.4 -337.3 139.7C-353.5 93 -359.3 46.5 -365.1 0L0 0Z" fill="#981efc"></path><path d="M0 243.4C-24.8 222.3 -49.7 201.1 -79.4 191.7C-109.2 182.3 -143.8 184.6 -170.1 170.1C-196.3 155.6 -214 124.3 -224.8 93.1C-235.7 62 -239.5 31 -243.4 0L0 0Z" fill="#c431fb"></path><path d="M0 121.7C-12.4 111.1 -24.8 100.6 -39.7 95.9C-54.6 91.1 -71.9 92.3 -85 85C-98.1 77.8 -107 62.1 -112.4 46.6C-117.8 31 -119.8 15.5 -121.7 0L0 0Z" fill="#d73cfa"></path></g><g transform="translate(0, 600)"><path d="M0 -486.7C64.4 -473.5 128.9 -460.3 177.6 -428.7C226.2 -397.1 259.1 -347.2 306.9 -306.9C354.6 -266.6 417.2 -235.8 449.7 -186.3C482.2 -136.7 484.5 -68.4 486.7 0L0 0Z" fill="#5816fe"></path><path d="M0 -365.1C48.3 -355.1 96.7 -345.2 133.2 -321.5C169.7 -297.8 194.3 -260.4 230.2 -230.2C266 -199.9 312.9 -176.9 337.3 -139.7C361.6 -102.5 363.3 -51.3 365.1 0L0 0Z" fill="#981efc"></path><path d="M0 -243.4C32.2 -236.8 64.4 -230.1 88.8 -214.3C113.1 -198.6 129.6 -173.6 153.4 -153.4C177.3 -133.3 208.6 -117.9 224.8 -93.1C241.1 -68.4 242.2 -34.2 243.4 0L0 0Z" fill="#c431fb"></path><path d="M0 -121.7C16.1 -118.4 32.2 -115.1 44.4 -107.2C56.6 -99.3 64.8 -86.8 76.7 -76.7C88.7 -66.6 104.3 -59 112.4 -46.6C120.5 -34.2 121.1 -17.1 121.7 0L0 0Z" fill="#d73cfa"></path></g></svg>